<svg xmlns="http://www.w3.org/2000/svg" xml:space="preserve" viewBox="0 0 128 128">
  <circle cx="64" cy="64" r="64" fill="#2d4452"/>
  <path fill="#e6e6e6" d="M13 41s35-9 38-10 11 0 11 11h-4c0-3-1-7-5-7-4 1-17 6-17 6H13z"/>
  <path fill="#d9d9d9" d="M50 35c-4 1-17 6-17 6h3s10.89-4.188 15.801-5.664A4.736 4.736 0 0 0 50 35zm1.604-4.158C55.006 31.45 59 34.227 59 42h3c0-10.328-7.052-11.84-10.396-11.158z"/>
  <path fill="#e6e6e6" d="M115 41s-35-9-38-10-11 0-11 11h4c0-3 1-7 5-7 4 1 17 6 17 6h23z"/>
  <path fill="#d9d9d9" d="M71 35c-3.74 0-4.855 3.497-4.986 6.404-.006.198-.014.391-.014.596h4c0-2.35.62-5.303 2.807-6.479-.707-.22-1.325-.4-1.807-.521zm6-4c-.992-.33-2.531-.439-4.146-.043.048.014.1.027.146.043 3 1 38 10 38 10h4s-35-9-38-10z"/>
  <path fill="#f5f5f5" d="M14 41c-3.3 0-6 2.7-6 6v25c0 3.3 2.7 6 6 6h31.916c3.3 0 7.183-2.427 8.628-5.395 0 0 3.706-8.605 9.456-8.605s9.456 8.605 9.456 8.605C74.9 75.573 78.784 78 82.084 78H114c3.3 0 6-2.7 6-6V47c0-3.3-2.7-6-6-6H14z"/>
  <path fill="#e6e6e6" d="M61 64c-5.75 0-9.456 8.605-9.456 8.605C50.099 75.573 46.216 78 42.916 78h3c3.3 0 7.183-2.427 8.628-5.395 0 0 3.073-7.103 7.956-8.389A5.965 5.965 0 0 0 61 64zm53-23h-3c3.3 0 6 2.7 6 6v25c0 3.3-2.7 6-6 6h3c3.3 0 6-2.7 6-6V47c0-3.3-2.7-6-6-6z"/>
  <path fill="#cc584c" d="M112 46H75c-2.2 0-4 1.8-4 4v10.605c4.921 3.274 7.582 9.127 7.967 10.021l.16.373H112c2.2 0 4-1.8 4-4v-17C116 47.8 114.2 46 112 46z"/>
  <path fill="#2995cc" d="M49.033 70.627c.385-.895 3.046-6.746 7.967-10.021V50c0-2.2-1.8-4-4-4H16c-2.2 0-4 1.8-4 4v17c0 2.2 1.8 4 4 4h32.873l.16-.373z"/>
  <path fill="#52a3cc" d="M26.429 46 12 60.43v5.655L32.085 46zm14.142 0h-2.829L13.581 70.161a3.97 3.97 0 0 0 2.03.8L40.571 46z"/>
  <path fill="#cc827a" d="m103.742 46-24.73 24.73.115.27h2.443l25-25zM92.43 46 74.611 63.816a26.208 26.208 0 0 1 2.425 3.233l21.05-21.051L92.43 46z"/>
  <path fill="#ffd464" d="M100 101a4 4 0 0 0 0-8c-.732 0-1.41.211-2 .555A3.955 3.955 0 0 0 96 93c-.047 0-.091.014-.137.014A3.992 3.992 0 0 0 92 90c-1.746 0-3.215 1.126-3.762 2.686a3.977 3.977 0 0 0-1.252-.549c0-.046.014-.09.014-.137a4 4 0 0 0-4-4c-.986 0-1.878.371-2.575.963A3.982 3.982 0 0 0 77 87c-.38 0-.741.07-1.089.169A4 4 0 0 0 72 84a4 4 0 0 0-3.911 3.169A3.96 3.96 0 0 0 67 87c-1.232 0-2.322.57-3.056 1.447C63.673 86.502 62.02 85 60 85c-2.064 0-3.744 1.57-3.958 3.578A3.96 3.96 0 0 0 54 88c-.692 0-1.333.191-1.9.501A3.975 3.975 0 0 0 49 87a3.987 3.987 0 0 0-3.757 2.674A3.987 3.987 0 0 0 42 88c-.692 0-1.333.191-1.9.501A3.975 3.975 0 0 0 37 87a4 4 0 0 0-3.911 3.169A3.96 3.96 0 0 0 32 90a3.991 3.991 0 0 0-3.863 3.014c-.046 0-.09-.014-.137-.014a4 4 0 0 0 0 8h72z"/>
  <path fill="#e6e6e6" d="M24 113.943C34.958 122.73 48.86 128 64 128c15.141 0 29.042-5.27 40-14.057V98H24v15.943z"/>
  <path fill="#f5f5f5" d="M107 100c0 1.1-.9 2-2 2H23c-1.1 0-2-.9-2-2s.9-2 2-2h82c1.1 0 2 .9 2 2z"/>
  <path fill="#e16b5a" d="M49 102h-2v23.699c.663.183 1.329.354 2 .516V102zm-8 0h-2v20.932c.659.278 1.33.534 2 .793V102zm4 0h-2v22.457c.664.23 1.326.465 2 .675V102zm8 0h-2v24.676c.661.137 1.332.247 2 .363V102zm-20 0h-2v16.842c.658.396 1.327.776 2 1.149V102zm66 15.57a60.266 60.266 0 0 0 2-1.366V102h-2v15.57zm-70 0V102h-2v14.204c.658.468 1.324.925 2 1.366zM57 102h-2v25.357c.664.094 1.33.182 2 .254V102zm-20 0h-2v19.047c.661.337 1.326.665 2 .979V102zm34 25.611c.67-.072 1.336-.16 2-.254V102h-2v25.611zm16-3.886c.67-.259 1.341-.515 2-.793V102h-2v21.725zM61 102h-2v25.787c.665.051 1.329.105 2 .137V102zm22 23.132c.674-.21 1.336-.444 2-.675V102h-2v23.132zm8-3.107a62.675 62.675 0 0 0 2-.979V102h-2v20.025zm-12 4.19a58.6 58.6 0 0 0 2-.516V102h-2v24.215zm-12 1.709c.671-.029 1.335-.086 2-.137V102h-2v25.924zm-2 .051V102h-2v25.975c.334.006.665.025 1 .025s.666-.021 1-.025zm30-7.984a64.692 64.692 0 0 0 2-1.149V102h-2v17.991zm-20 7.048c.668-.116 1.339-.227 2-.363V102h-2v25.039z"/>
</svg>
